<?xml version="1.0" standalone="no"?>
<!DOCTYPE svg PUBLIC "-//W3C//DTD SVG 20010904//EN"
 "http://www.w3.org/TR/2001/REC-SVG-20010904/DTD/svg10.dtd">
<svg version="1.0" xmlns="http://www.w3.org/2000/svg"
 width="666.000000pt" height="375.000000pt" viewBox="0 0 666.000000 375.000000"
 preserveAspectRatio="xMidYMid meet">

<g transform="translate(0.000000,375.000000) scale(0.100000,-0.100000)"
fill="#000000" stroke="none">
<path d="M2616 3635 c-53 -19 -106 -63 -130 -111 -21 -38 -21 -54 -24 -702
l-2 -663 30 16 30 16 0 615 c0 411 4 630 11 658 16 65 62 104 135 116 67 12
159 11 192 -1 16 -6 22 -17 22 -39 0 -19 9 -40 25 -55 l24 -25 380 0 c224 0
390 4 405 10 26 10 40 32 50 83 l6 27 119 0 c129 0 158 -10 205 -73 l21 -28 3
-1620 c3 -1791 7 -1661 -64 -1715 l-37 -29 -671 -3 c-369 -2 -685 0 -703 3
-42 7 -92 50 -110 92 -11 28 -13 192 -13 956 l0 922 -30 -30 -29 -30 -1 -907
-1 -908 26 -49 c15 -27 40 -58 56 -70 69 -51 64 -51 778 -51 744 0 729 -1 798
68 74 74 68 -78 64 1737 -3 1256 -6 1637 -16 1660 -20 50 -66 96 -120 121
l-50 24 -670 -1 c-544 0 -677 -2 -709 -14z"/>
<path d="M2696 3381 c-4 -5 7 -12 24 -16 16 -4 32 -11 36 -16 3 -6 -5 -7 -23
-3 -15 4 -30 7 -33 6 -52 -1 -80 -28 -80 -80 0 -62 61 -108 108 -83 26 14 35
14 27 1 -3 -5 -20 -14 -38 -19 -26 -7 -28 -9 -9 -10 30 -1 78 24 86 45 5 14 1
15 -26 11 -18 -3 -45 -9 -60 -12 -21 -6 -32 -2 -52 18 -14 15 -26 35 -26 47 0
12 12 32 26 47 20 20 31 24 52 18 66 -16 92 -17 87 -4 -13 31 -88 69 -99 50z"/>
<path d="M2677 3323 c-29 -7 -41 -51 -22 -79 8 -13 20 -24 25 -24 6 0 3 11 -6
26 -16 24 -16 26 5 55 12 16 20 28 19 28 -2 -1 -11 -3 -21 -6z"/>
<path d="M3940 3320 c-9 -6 -10 -10 -3 -10 6 0 15 5 18 10 8 12 4 12 -15 0z"/>
<path d="M3853 3313 c15 -2 37 -2 50 0 12 2 0 4 -28 4 -27 0 -38 -2 -22 -4z"/>
<path d="M3820 3270 c-9 -6 -10 -10 -3 -10 6 0 15 5 18 10 8 12 4 12 -15 0z"/>
<path d="M3112 3224 c9 -8 439 -11 444 -2 3 4 -97 8 -222 8 -125 0 -225 -2
-222 -6z"/>
<path d="M3800 3210 c-9 -6 -10 -10 -3 -10 6 0 15 5 18 10 8 12 4 12 -15 0z"/>
<path d="M1860 3061 c-30 -11 -80 -32 -110 -48 l-55 -28 -1 -73 c-1 -58 3 -79
18 -98 11 -13 20 -35 21 -48 1 -14 12 -34 25 -46 12 -11 22 -30 22 -40 0 -11
7 -20 15 -20 8 0 22 -11 31 -25 19 -28 55 -33 75 -9 8 9 21 13 35 10 31 -8 36
15 13 60 -24 49 -24 56 4 82 30 28 51 28 69 0 l15 -22 12 21 c8 17 8 33 -1 67
-11 40 -10 47 6 65 10 11 22 18 27 15 4 -2 24 2 44 10 26 11 35 21 35 39 0 33
-20 48 -68 51 -22 2 -54 13 -71 26 -42 30 -94 33 -161 11z"/>
<path d="M3139 2723 c-13 -16 -12 -17 3 -5 9 7 29 12 45 10 22 -2 29 -9 31
-31 2 -16 -1 -34 -8 -41 -8 -10 -7 -15 5 -20 9 -3 13 -10 10 -16 -9 -15 -25
-12 -25 4 0 7 -13 16 -29 19 -20 4 -33 15 -40 34 l-11 28 5 -28 c3 -16 1 -35
-6 -43 -8 -10 -7 -17 6 -30 15 -15 17 -15 30 2 13 17 14 -6 15 -178 l0 -198
195 0 195 0 -2 233 -3 232 -159 3 c-146 2 -161 4 -173 22 -18 25 -66 26 -84 3z
m409 -260 l2 -223 -185 0 -185 0 0 191 c0 169 2 190 15 179 12 -10 15 -39 15
-141 0 -129 0 -130 25 -139 14 -5 31 -24 39 -42 8 -18 15 -26 15 -17 1 21 -37
69 -55 69 -11 0 -14 23 -14 123 0 117 1 123 23 132 12 6 26 20 32 33 9 20 17
22 86 22 71 0 76 -1 87 -25 7 -14 23 -30 37 -35 25 -9 25 -11 25 -130 0 -86
-3 -120 -12 -120 -18 0 -58 -41 -58 -59 0 -10 5 -6 13 9 7 14 25 31 40 38 l27
13 0 122 0 122 -31 18 c-17 9 -33 26 -36 37 -5 18 -14 20 -89 20 -82 0 -85 -1
-94 -26 -9 -22 -13 -24 -25 -14 -15 13 -20 51 -8 64 4 3 75 5 157 4 l151 -3 3
-222z m-390 166 c-2 -6 -8 -10 -13 -10 -5 0 -11 4 -13 10 -2 6 4 11 13 11 9 0
15 -5 13 -11z"/>
<path d="M3250 2554 c0 -9 7 -14 17 -12 25 5 28 28 4 28 -12 0 -21 -6 -21 -16z"/>
<path d="M3300 2555 c0 -8 5 -15 10 -15 6 0 10 7 10 15 0 8 -4 15 -10 15 -5 0
-10 -7 -10 -15z"/>
<path d="M3330 2553 c0 -15 2 -16 10 -3 6 10 10 11 10 3 0 -7 5 -13 10 -13 6
0 10 7 10 15 0 8 -9 15 -20 15 -12 0 -20 -7 -20 -17z"/>
<path d="M3380 2555 c0 -10 11 -15 35 -15 27 0 35 4 35 18 0 13 -2 14 -9 3 -7
-11 -9 -11 -14 0 -4 10 -6 10 -6 2 -1 -7 -6 -13 -12 -13 -5 0 -7 5 -4 10 3 6
-1 10 -9 10 -9 0 -16 -7 -16 -15z"/>
<path d="M3460 2554 c0 -8 5 -12 10 -9 6 4 8 11 5 16 -9 14 -15 11 -15 -7z"/>
<path d="M3343 2513 c15 -2 37 -2 50 0 12 2 0 4 -28 4 -27 0 -38 -2 -22 -4z"/>
<path d="M3298 2443 c34 -2 90 -2 125 0 34 2 6 3 -63 3 -69 0 -97 -1 -62 -3z"/>
<path d="M3318 2403 c29 -2 74 -2 100 0 26 2 2 3 -53 3 -55 0 -76 -1 -47 -3z"/>
<path d="M3308 2373 c34 -2 88 -2 120 0 31 2 3 3 -63 3 -66 0 -92 -1 -57 -3z"/>
<path d="M3164 2706 c-18 -20 -12 -44 13 -49 13 -2 23 -1 23 4 0 4 2 13 5 21
7 19 -27 39 -41 24z m23 -32 c-9 -9 -28 6 -21 18 4 6 10 6 17 -1 6 -6 8 -13 4
-17z"/>
<path d="M2080 2171 c0 -6 4 -13 10 -16 6 -3 7 1 4 9 -7 18 -14 21 -14 7z"/>
<path d="M3277 2139 c-21 -5 -52 -16 -69 -25 -22 -11 -43 -14 -74 -9 -56 8
-65 2 -51 -34 8 -22 8 -35 -2 -53 -6 -13 -20 -38 -30 -57 -10 -19 -32 -39 -49
-47 -29 -12 -32 -17 -30 -51 l1 -38 4 36 c3 29 10 39 35 50 45 20 92 110 83
157 l-6 34 41 -7 c31 -5 54 -2 94 14 29 12 81 26 117 30 55 7 58 9 19 9 -25 0
-62 -4 -83 -9z"/>
<path d="M3445 2126 c65 -21 121 -53 158 -92 34 -36 34 -36 65 -20 18 9 32 13
33 9 7 -64 1 -82 -22 -68 -7 5 -5 15 6 31 17 27 16 28 -19 14 -25 -9 -25 -10
-11 -44 19 -45 19 -127 0 -172 -8 -19 -28 -52 -45 -72 -23 -28 -30 -46 -30
-80 0 -36 -4 -44 -26 -52 -40 -15 -53 -12 -60 15 -6 23 -9 24 -48 17 -53 -9
-131 -9 -177 1 -34 7 -37 5 -43 -18 -7 -27 -33 -33 -67 -15 -14 8 -19 21 -19
53 0 60 -43 102 -99 99 -30 -2 -41 1 -45 15 -4 15 -4 14 -3 -2 2 -16 10 -20
39 -21 55 -1 98 -42 98 -93 0 -30 6 -44 22 -55 34 -24 67 -20 80 8 9 21 15 24
42 18 39 -9 120 -9 167 0 33 6 38 4 48 -19 10 -22 16 -24 43 -19 44 9 58 24
58 63 0 25 12 54 40 95 43 65 54 103 48 173 -2 31 0 44 8 41 6 -2 17 1 23 7 8
8 11 8 11 -1 0 -24 21 -11 37 22 15 32 15 37 -1 60 -20 31 -34 32 -80 5 l-35
-21 -32 36 c-34 39 -143 96 -180 95 -17 0 -13 -4 16 -13z m297 -143 c1 -12 -1
-22 -7 -23 -5 0 -10 14 -11 31 -2 34 12 27 18 -8z m15 5 c-3 -8 -6 -5 -6 6 -1
11 2 17 5 13 3 -3 4 -12 1 -19z"/>
<path d="M3304 2096 c-24 -18 -13 -31 14 -17 26 14 73 14 106 1 16 -6 27 -6
31 0 17 27 -116 41 -151 16z"/>
<path d="M2126 2087 c3 -10 9 -15 12 -12 3 3 0 11 -7 18 -10 9 -11 8 -5 -6z"/>
<path d="M2174 2002 c0 -15 -2 -43 -3 -62 -2 -19 -2 -51 -1 -70 2 -19 6 6 10
55 5 50 5 93 1 97 -3 4 -6 -5 -7 -20z"/>
<path d="M2982 1795 c0 -16 2 -22 5 -12 2 9 2 23 0 30 -3 6 -5 -1 -5 -18z"/>
<path d="M2129 1503 c0 -26 -4 -70 -7 -98 -7 -49 -8 -50 -52 -62 -66 -17 -182
-16 -236 3 -65 22 -122 65 -171 130 l-43 56 0 -75 c0 -89 16 -298 32 -422 6
-54 12 -249 12 -481 1 -371 2 -393 20 -413 29 -31 70 -25 119 17 10 9 37 22
60 28 23 7 51 15 63 19 20 6 22 1 34 -99 l13 -106 63 0 c34 0 65 4 68 9 3 4
23 11 45 14 41 5 137 65 181 112 24 26 25 27 6 41 -27 19 -66 18 -127 -6 -29
-10 -55 -17 -60 -15 -4 3 -3 22 1 42 4 21 11 169 14 328 4 198 11 314 21 365
21 103 34 304 27 428 -4 94 -12 122 -25 90 -10 -24 -26 14 -33 75 -8 72 -24
84 -25 20z m-205 -358 c3 -71 13 -184 21 -250 15 -124 17 -278 6 -448 l-6 -99
-39 -13 c-42 -15 -61 -11 -49 8 4 6 6 128 5 272 -2 215 1 284 18 400 11 77 20
176 20 220 2 119 16 63 24 -90z"/>
<path d="M3117 1453 c150 -2 396 -2 545 0 150 1 28 2 -272 2 -300 0 -422 -1
-273 -2z"/>
<path d="M3460 1290 c0 -33 4 -50 13 -50 8 0 11 15 9 50 -5 65 -22 65 -22 0z"/>
<path d="M3910 1290 c0 -27 5 -50 10 -50 6 0 10 5 10 11 0 8 5 8 15 -1 9 -8
15 -9 15 -2 0 6 -5 14 -10 17 -8 5 -7 11 1 21 6 8 9 18 5 21 -4 4 -11 1 -16
-7 -7 -11 -10 -8 -10 13 0 15 -4 27 -10 27 -5 0 -10 -22 -10 -50z"/>
<path d="M2780 1314 c-10 -11 -11 -23 -4 -42 7 -21 16 -27 38 -27 16 0 31 6
34 13 3 11 0 12 -16 3 -15 -8 -23 -7 -32 4 -20 24 -8 50 23 48 15 -1 25 2 22
8 -10 14 -51 11 -65 -7z"/>
<path d="M3660 1286 c0 -46 0 -46 34 -46 35 0 53 21 39 43 -4 7 -8 19 -8 27 0
10 -12 16 -32 18 -33 3 -33 3 -33 -42z m50 24 c0 -5 -7 -10 -15 -10 -8 0 -15
5 -15 10 0 6 7 10 15 10 8 0 15 -4 15 -10z m3 -45 c1 -5 -6 -11 -15 -13 -11
-2 -18 3 -18 13 0 17 30 18 33 0z"/>
<path d="M2870 1295 c-18 -22 -1 -50 31 -50 20 0 24 5 24 30 0 23 -5 31 -21
33 -11 2 -27 -4 -34 -13z m40 -26 c0 -20 -15 -26 -25 -9 -9 15 3 43 15 35 5
-3 10 -15 10 -26z"/>
<path d="M3004 1296 c-15 -39 22 -74 49 -47 9 9 5 11 -13 9 -19 -2 -25 2 -25
17 0 15 6 19 23 18 13 -2 21 1 17 7 -9 15 -45 12 -51 -4z"/>
<path d="M3072 1278 c3 -28 7 -33 31 -34 25 -1 27 2 26 35 -1 35 -2 35 -8 7
-9 -41 -31 -46 -31 -7 0 17 -5 31 -11 31 -6 0 -9 -14 -7 -32z"/>
<path d="M3157 1303 c-2 -5 0 -21 4 -38 6 -26 7 -27 8 -6 0 13 9 30 19 37 16
12 15 13 -5 14 -12 0 -24 -3 -26 -7z"/>
<path d="M3210 1275 c0 -19 5 -35 10 -35 6 0 10 11 10 25 0 14 5 25 10 25 6 0
10 5 10 10 0 6 -9 10 -20 10 -16 0 -20 -7 -20 -35z"/>
<path d="M3269 1308 c-6 -24 -5 -59 2 -63 5 -4 9 10 9 29 0 20 -2 36 -5 36 -3
0 -5 -1 -6 -2z"/>
<path d="M3305 1291 c-3 -10 -3 -26 1 -35 7 -18 39 -22 49 -5 4 6 0 9 -11 7
-13 -2 -19 3 -19 17 0 14 6 19 18 17 9 -2 17 2 17 8 0 18 -48 11 -55 -9z"/>
<path d="M3381 1278 c-1 -35 1 -37 29 -36 27 1 30 4 30 35 0 40 -17 44 -22 6
-4 -37 -21 -36 -29 2 -7 29 -7 29 -8 -7z"/>
<path d="M3500 1300 c0 -5 7 -7 15 -4 8 4 15 1 15 -5 0 -6 -7 -11 -15 -11 -8
0 -15 -9 -15 -19 0 -15 7 -19 30 -19 23 1 29 5 25 15 -3 8 -5 23 -5 34 0 14
-7 19 -25 19 -14 0 -25 -4 -25 -10z m30 -40 c0 -5 -4 -10 -10 -10 -5 0 -10 5
-10 10 0 6 5 10 10 10 6 0 10 -4 10 -10z"/>
<path d="M3570 1275 c0 -19 5 -35 10 -35 6 0 10 10 10 21 0 12 8 28 18 35 15
12 14 13 -10 14 -25 0 -28 -3 -28 -35z"/>
<path d="M3754 1299 c-5 -9 -2 -10 9 -6 10 3 17 2 17 -2 0 -5 -7 -11 -15 -15
-19 -7 -20 -36 0 -36 9 0 12 6 9 15 -4 8 -1 15 5 15 6 0 10 -5 9 -12 -2 -6 4
-13 13 -15 14 -3 16 2 10 29 -7 35 -42 51 -57 27z"/>
<path d="M3831 1273 l1 -38 9 33 c12 40 29 42 29 2 0 -16 5 -30 11 -30 6 0 9
14 7 33 -2 27 -8 33 -30 35 -26 3 -28 1 -27 -35z"/>
<path d="M2948 1283 c6 -2 18 -2 25 0 6 3 1 5 -13 5 -14 0 -19 -2 -12 -5z"/>
<path d="M3151 1142 c-5 -10 -6 -32 -1 -52 7 -31 8 -32 9 -8 1 14 7 29 14 31
9 4 8 8 -3 16 -10 7 -11 11 -2 11 6 0 12 5 12 10 0 16 -19 11 -29 -8z"/>
<path d="M3500 1142 c0 -13 -7 -18 -22 -18 -19 1 -24 -5 -26 -31 -3 -31 -1
-33 27 -33 30 0 31 1 31 50 0 28 -2 50 -5 50 -3 0 -5 -8 -5 -18z m-5 -52 c0
-7 -6 -15 -12 -17 -8 -3 -13 4 -13 17 0 13 5 20 13 18 6 -3 12 -11 12 -18z"/>
<path d="M3535 1150 c-3 -5 1 -10 10 -10 9 0 13 5 10 10 -3 6 -8 10 -10 10 -2
0 -7 -4 -10 -10z"/>
<path d="M3230 1125 c-14 -37 3 -65 40 -65 21 0 30 5 30 16 0 13 -3 14 -15 4
-19 -16 -45 -6 -45 18 0 29 20 43 43 31 15 -9 18 -8 15 3 -3 7 -17 14 -31 16
-21 3 -29 -2 -37 -23z"/>
<path d="M3577 1132 c-10 -15 6 -72 19 -72 12 0 12 4 2 21 -10 17 -10 23 0 26
6 3 12 8 12 13 0 11 -28 21 -33 12z"/>
<path d="M3070 1115 c-20 -25 -8 -50 25 -50 21 0 31 5 33 18 4 21 -14 47 -33
47 -7 0 -18 -7 -25 -15z m35 -25 c0 -7 -6 -15 -12 -17 -8 -3 -13 4 -13 17 0
13 5 20 13 18 6 -3 12 -11 12 -18z"/>
<path d="M3320 1092 c0 -19 4 -31 10 -27 6 3 10 15 10 26 0 10 5 19 10 19 6 0
10 4 10 8 0 4 -9 8 -20 8 -16 0 -20 -7 -20 -34z"/>
<path d="M3381 1116 c-20 -24 -9 -51 22 -54 15 -2 27 1 27 6 0 6 -9 8 -20 5
-11 -3 -20 0 -20 6 0 6 9 11 21 11 14 0 19 5 17 17 -4 23 -31 28 -47 9z m36
-12 c-3 -3 -12 -4 -19 -1 -8 3 -5 6 6 6 11 1 17 -2 13 -5z"/>
<path d="M3537 1123 c-11 -10 -8 -63 3 -63 6 0 10 16 10 35 0 36 -2 40 -13 28z"/>
<path d="M3632 1118 c-10 -10 -8 -16 10 -31 16 -13 18 -17 6 -13 -10 3 -20 0
-24 -5 -4 -7 4 -9 22 -7 35 4 43 25 12 37 -17 7 -18 10 -5 10 9 1 17 6 17 11
0 14 -23 13 -38 -2z"/>
<path d="M3097 933 c150 -2 396 -2 545 0 150 1 28 2 -272 2 -300 0 -422 -1
-273 -2z"/>
<path d="M3248 853 c67 -2 177 -2 245 0 67 1 12 3 -123 3 -135 0 -190 -2 -122
-3z"/>
</g>
</svg>
